<?xml version="1.0" encoding="UTF-8"?>
<svg xmlns="http://www.w3.org/2000/svg" version="1.1" viewBox="0 0 2599 1733">
  <defs>
    <style>
      .cls-1 {
        fill: #fff5e4;
      }

      .cls-2 {
        fill: #ffd1d1;
      }
    </style>
  </defs>
  <!-- Generator: Adobe Illustrator 28.7.5, SVG Export Plug-In . SVG Version: 1.2.0 Build 176)  -->
  <g>
    <g id="Layer_1">
      <rect class="cls-1" width="2598.08" height="1732.05"/>
      <g>
        <g>
          <path class="cls-2" d="M563.17,1122.91c-12.84-8.9-24.39.76-43.62,3.15-28.22,3.51-35.03,19.5-26.87,29.83,8.16,10.33,25.32,5.17,36.26,13.52.03.03.07.05.1.08.03.02.07.05.11.07,11.26,7.92,11.51,25.84,23.82,30.5,12.31,4.67,25.49-6.64,20.34-34.61-3.51-19.06,2.22-32.99-10.13-42.55Z"/>
          <path class="cls-2" d="M539.62,1091.31c-.05,14.68-7.77,26.56-17.23,26.52-9.46-.03-17.09-11.96-17.04-26.64.05-14.68,7.77-26.56,17.23-26.52,9.46.03,17.09,11.96,17.04,26.64Z"/>
          <path class="cls-2" d="M600.4,1135.85c-13.98,4.47-22.98,15.41-20.1,24.42,2.88,9.01,16.56,12.7,30.54,8.22,13.98-4.47,22.98-15.41,20.1-24.42-2.88-9.01-16.56-12.7-30.54-8.22Z"/>
          <path class="cls-2" d="M584.4,1087.09c-6.82,13.9-19.61,21.6-28.57,17.21-8.96-4.4-10.7-19.23-3.88-33.13,6.82-13.9,19.61-21.6,28.57-17.21,8.96,4.4,10.7,19.23,3.88,33.13Z"/>
          <path class="cls-2" d="M590.93,1091.87c-11.2,10.69-14.69,25.21-7.8,32.43,6.89,7.22,21.56,4.41,32.76-6.28,11.2-10.69,14.69-25.21,7.8-32.43-6.89-7.22-21.56-4.41-32.76,6.28Z"/>
        </g>
        <g>
          <path class="cls-2" d="M1888.03,1525.53c-13.3,8.18-9.1,22.64-14.63,41.22-8.11,27.26,3.79,39.91,16.52,36.59,12.73-3.32,14.9-21.11,26.95-27.78.04-.02.07-.04.11-.06.04-.02.07-.04.11-.07,11.77-7.14,28.28-.17,37.5-9.57,9.22-9.4,4.15-26.02-23.53-32.53-18.87-4.44-29.32-15.27-43.04-7.8Z"/>
          <path class="cls-2" d="M1849.63,1534.41c13.43,5.94,21.2,17.78,17.37,26.43-3.83,8.65-17.82,10.85-31.24,4.91-13.42-5.94-21.2-17.78-17.37-26.43,3.83-8.65,17.82-10.85,31.24-4.91Z"/>
          <path class="cls-2" d="M1914.83,1496.62c-1.52,14.6,4.88,27.23,14.3,28.21s18.28-10.06,19.8-24.67c1.52-14.6-4.88-27.23-14.3-28.21-9.41-.98-18.28,10.07-19.8,24.67Z"/>
          <path class="cls-2" d="M1863.75,1491.7c9.99,11.83,11.91,26.64,4.28,33.08-7.62,6.44-21.91,2.07-31.9-9.75-9.99-11.83-11.91-26.64-4.29-33.08,7.63-6.44,21.91-2.07,31.9,9.75Z"/>
          <path class="cls-2" d="M1870.75,1487.64c5.29,14.55,17.19,23.58,26.57,20.16,9.38-3.41,12.69-17.97,7.4-32.52-5.29-14.55-17.19-23.58-26.57-20.16-9.38,3.41-12.69,17.97-7.4,32.52Z"/>
        </g>
        <g>
          <path class="cls-2" d="M2089.32,386.78c-15.36,2.83-16.65,17.83-28.51,33.16-17.4,22.49-10.87,38.59,2.21,40.09,13.08,1.49,21.52-14.31,35.15-16.19.04,0,.08-.01.13-.02.04,0,.08-.02.13-.02,13.55-2.41,26.44,10.05,38.43,4.61,11.98-5.44,13.26-22.76-10.21-38.83-16-10.95-21.83-24.82-37.32-22.8Z"/>
          <path class="cls-2" d="M2050.3,381.2c10.38,10.39,13.36,24.23,6.66,30.92-6.7,6.69-20.54,3.69-30.91-6.69-10.38-10.39-13.36-24.23-6.66-30.92,6.7-6.69,20.54-3.69,30.91,6.69Z"/>
          <path class="cls-2" d="M2124.74,369.49c-6.69,13.07-5.27,27.16,3.15,31.47,8.43,4.31,20.68-2.79,27.36-15.86,6.69-13.07,5.27-27.16-3.15-31.47-8.43-4.31-20.68,2.79-27.36,15.86Z"/>
          <path class="cls-2" d="M2078.88,346.46c5.05,14.64,1.5,29.14-7.94,32.4-9.44,3.26-21.18-5.97-26.23-20.6-5.05-14.64-1.5-29.14,7.94-32.4,9.43-3.26,21.18,5.97,26.23,20.6Z"/>
          <path class="cls-2" d="M2086.87,345.21c-.31,15.48,7.52,28.19,17.5,28.39,9.98.2,18.32-12.18,18.63-27.66.31-15.48-7.52-28.19-17.5-28.39-9.98-.2-18.32,12.18-18.63,27.66Z"/>
        </g>
        <g>
          <path class="cls-2" d="M2051.96,91.86c-13.77,7.38-10.43,22.06-17.06,40.27-9.72,26.73,1.41,40.07,14.32,37.51,12.91-2.56,16.13-20.19,28.55-26.13.04-.02.08-.04.12-.05.04-.02.08-.04.11-.06,12.18-6.42,28.24,1.51,38-7.32,9.76-8.83,5.7-25.72-21.55-33.87-18.57-5.56-28.36-16.99-42.49-10.35Z"/>
          <path class="cls-2" d="M2013.09,98.44c13.05,6.73,20.11,19.01,15.77,27.42-4.34,8.41-18.43,9.77-31.48,3.04-13.05-6.73-20.11-19.01-15.77-27.42,4.34-8.41,18.43-9.77,31.48-3.04Z"/>
          <path class="cls-2" d="M2080.43,64.6c-2.39,14.49,3.25,27.48,12.59,29.01,9.34,1.54,18.84-8.96,21.23-23.45,2.39-14.49-3.25-27.48-12.59-29.01-9.34-1.54-18.84,8.96-21.23,23.45Z"/>
          <path class="cls-2" d="M2029.73,56.65c9.27,12.4,10.3,27.3,2.31,33.27-8,5.98-21.99.77-31.26-11.63-9.27-12.4-10.3-27.3-2.31-33.27,7.99-5.98,21.99-.77,31.26,11.63Z"/>
          <path class="cls-2" d="M2036.96,53.01c4.42,14.84,15.76,24.56,25.32,21.71,9.57-2.85,13.74-17.19,9.32-32.03-4.42-14.84-15.76-24.56-25.32-21.71-9.57,2.85-13.74,17.19-9.32,32.03Z"/>
        </g>
        <g>
          <path class="cls-2" d="M2257.67,1165.3c-14.08-6.76-23.96,4.6-42.58,10-27.31,7.93-31.51,24.79-21.83,33.69,9.69,8.91,25.82,1.11,37.94,7.63.04.02.08.04.11.06.04.02.08.04.12.06,12.37,6.04,15.45,23.69,28.34,26.36,12.89,2.66,24.12-10.58,14.62-37.39-6.48-18.27-3.02-32.92-16.73-40.41Z"/>
          <path class="cls-2" d="M2229.42,1137.81c2.27,14.5-3.47,27.45-12.83,28.91-9.35,1.46-18.77-9.11-21.04-23.62-2.27-14.51,3.47-27.45,12.83-28.91,9.35-1.46,18.77,9.11,21.04,23.62Z"/>
          <path class="cls-2" d="M2296.48,1172.19c-13.1,6.62-20.26,18.84-15.99,27.29,4.27,8.45,18.35,9.92,31.46,3.3,13.1-6.62,20.26-18.84,15.99-27.29-4.27-8.45-18.35-9.92-31.46-3.3Z"/>
          <path class="cls-2" d="M2272.98,1126.57c-4.54,14.8-15.95,24.43-25.5,21.5-9.54-2.93-13.6-17.3-9.06-32.1,4.54-14.8,15.95-24.43,25.5-21.5,9.54,2.93,13.6,17.3,9.06,32.1Z"/>
          <ellipse class="cls-2" cx="2294.57" cy="1141.2" rx="28.03" ry="18.07" transform="translate(-2.58 2277.21) rotate(-52.76)"/>
        </g>
        <g>
          <path class="cls-2" d="M1652.39,131.74c-15.61-.55-20.11,13.81-35.01,26.22-21.85,18.2-18.95,35.33-6.51,39.62,12.44,4.28,24.1-9.32,37.82-8.21.04,0,.09,0,.13.01h.13c13.75.59,23.65,15.53,36.52,12.81,12.88-2.72,17.87-19.36-1.57-40.12-13.25-14.15-15.95-28.96-31.51-30.33Z"/>
          <path class="cls-2" d="M1615.49,117.86c7.89,12.38,7.81,26.54-.18,31.63-7.98,5.08-20.85-.83-28.73-13.22-7.89-12.38-7.81-26.54.18-31.63,7.98-5.08,20.85.83,28.73,13.22Z"/>
          <path class="cls-2" d="M1690.71,122.52c-9.35,11.32-11.02,25.38-3.72,31.41,7.3,6.03,20.79,1.74,30.14-9.57,9.35-11.32,11.02-25.38,3.72-31.41-7.3-6.03-20.79-1.74-30.14,9.57Z"/>
          <path class="cls-2" d="M1650.91,90.13c1.77,15.38-4.84,28.77-14.75,29.91-9.92,1.14-19.39-10.4-21.16-25.79-1.77-15.38,4.84-28.77,14.75-29.91,9.92-1.14,19.39,10.41,21.16,25.79Z"/>
          <path class="cls-2" d="M1658.98,90.63c-3.65,15.05,1.25,29.15,10.95,31.5,9.7,2.35,20.52-7.94,24.17-22.98,3.65-15.05-1.25-29.15-10.95-31.5-9.7-2.35-20.52,7.94-24.17,22.98Z"/>
        </g>
        <g>
          <path class="cls-2" d="M2028.13,831.65c-13,8.65-8.29,22.95-13.16,41.71-7.14,27.53,5.21,39.75,17.81,35.98,12.61-3.77,14.14-21.63,25.94-28.72.04-.02.07-.04.11-.07.04-.02.07-.05.11-.07,11.51-7.55,28.26-1.18,37.14-10.89,8.88-9.72,3.23-26.15-24.67-31.67-19.02-3.77-29.84-14.22-43.29-6.27Z"/>
          <path class="cls-2" d="M1990.06,841.89c13.63,5.46,21.82,17.01,18.3,25.8-3.52,8.79-17.42,11.48-31.05,6.02-13.63-5.46-21.82-17.01-18.3-25.8,3.52-8.79,17.42-11.48,31.05-6.02Z"/>
          <path class="cls-2" d="M2053.88,801.81c-1,14.65,5.85,27.04,15.29,27.69,9.44.64,17.91-10.71,18.91-25.35,1-14.65-5.85-27.04-15.29-27.69s-17.91,10.71-18.91,25.35Z"/>
          <path class="cls-2" d="M2002.66,798.71c10.4,11.47,12.85,26.2,5.46,32.91-7.39,6.71-21.82,2.85-32.22-8.61s-12.85-26.2-5.46-32.91c7.39-6.71,21.82-2.85,32.22,8.61Z"/>
          <path class="cls-2" d="M2009.51,794.41c5.81,14.35,18.02,22.95,27.27,19.21,9.25-3.74,12.04-18.41,6.24-32.77-5.81-14.35-18.02-22.95-27.27-19.21-9.25,3.74-12.05,18.41-6.24,32.77Z"/>
        </g>
        <g>
          <path class="cls-2" d="M643.47,574.98c-11.22,10.86-3.99,24.07-5.38,43.4-2.04,28.37,12.32,38.15,24.04,32.16,11.72-6,9.99-23.83,20.31-32.94.03-.03.06-.06.1-.08.03-.03.06-.06.09-.09,9.95-9.51,27.58-6.28,34.55-17.44,6.97-11.16-1.56-26.3-30-26.68-19.38-.26-31.93-8.58-43.7,1.67Z"/>
          <path class="cls-2" d="M607.88,591.95c14.39,2.9,24.54,12.78,22.67,22.06-1.87,9.28-15.06,14.44-29.45,11.54-14.39-2.9-24.54-12.78-22.67-22.06,1.87-9.28,15.06-14.44,29.45-11.54Z"/>
          <path class="cls-2" d="M663.39,540.97c1.67,14.59,10.65,25.54,20.05,24.46,9.4-1.08,15.67-13.77,14-28.36-1.67-14.59-10.65-25.54-20.05-24.46-9.4,1.08-15.67,13.77-14,28.36Z"/>
          <path class="cls-2" d="M612.45,547.2c12.31,9.39,17.38,23.44,11.33,31.37-6.05,7.94-20.94,6.76-33.25-2.64-12.31-9.39-17.38-23.44-11.33-31.37,6.05-7.94,20.94-6.76,33.25,2.63Z"/>
          <path class="cls-2" d="M618.41,541.72c8.31,13.06,21.88,19.31,30.3,13.95,8.42-5.36,8.51-20.29.2-33.35-8.31-13.06-21.88-19.31-30.3-13.95-8.42,5.36-8.51,20.29-.2,33.35Z"/>
        </g>
        <g>
          <path class="cls-2" d="M840.87,872.45c-14.34,6.18-12.27,21.09-20.43,38.67-11.96,25.8-2.01,40.04,11.07,38.59,13.08-1.45,17.79-18.74,30.68-23.6.04-.01.08-.03.12-.05.04-.02.08-.03.12-.05,12.68-5.36,28.01,3.91,38.49-4.05,10.48-7.97,7.87-25.14-18.59-35.59-18.03-7.12-26.81-19.35-41.46-13.93Z"/>
          <path class="cls-2" d="M801.59,875.69c12.43,7.82,18.41,20.65,13.37,28.66-5.04,8.01-19.2,8.17-31.63.35-12.43-7.82-18.41-20.65-13.37-28.66,5.04-8.01,19.2-8.17,31.63-.35Z"/>
          <path class="cls-2" d="M871.57,847.72c-3.61,14.23.9,27.65,10.07,29.98,9.17,2.33,19.54-7.32,23.15-21.55,3.61-14.23-.9-27.65-10.07-29.98-9.17-2.33-19.54,7.32-23.15,21.55Z"/>
          <path class="cls-2" d="M821.73,835.47c8.18,13.15,7.94,28.08-.54,33.35-8.47,5.27-21.98-1.11-30.15-14.26-8.18-13.15-7.94-28.08.54-33.35,8.47-5.27,21.98,1.11,30.15,14.26Z"/>
          <path class="cls-2" d="M829.25,832.46c3.14,15.16,13.6,25.81,23.38,23.79,9.77-2.02,15.15-15.95,12.02-31.11-3.14-15.16-13.6-25.81-23.38-23.79-9.77,2.02-15.15,15.95-12.02,31.11Z"/>
        </g>
        <g>
          <path class="cls-2" d="M428.68,1439.18c-14.49,5.82-12.79,20.78-21.38,38.15-12.6,25.49-3.01,39.98,10.1,38.85,13.11-1.13,18.26-18.29,31.25-22.83.04-.01.08-.03.12-.04.04-.02.08-.03.12-.05,12.81-5.04,27.91,4.61,38.58-3.09,10.67-7.7,8.49-24.94-17.7-36.04-17.85-7.56-26.32-20.01-41.1-14.96Z"/>
          <path class="cls-2" d="M389.33,1441.44c12.23,8.13,17.89,21.1,12.66,28.99-5.24,7.88-19.4,7.69-31.62-.44-12.23-8.13-17.89-21.1-12.66-28.99,5.24-7.88,19.4-7.69,31.62.44Z"/>
          <path class="cls-2" d="M459.98,1415.21c-3.96,14.14.21,27.67,9.32,30.22,9.11,2.56,19.71-6.83,23.68-20.97,3.96-14.14-.21-27.67-9.32-30.22-9.11-2.56-19.71,6.83-23.68,20.97Z"/>
          <path class="cls-2" d="M410.46,1401.73c7.85,13.35,7.24,28.27-1.37,33.33-8.6,5.06-21.94-1.66-29.79-15-7.85-13.35-7.24-28.27,1.37-33.33,8.6-5.06,21.94,1.66,29.79,15Z"/>
          <path class="cls-2" d="M418.05,1398.92c2.76,15.23,12.96,26.14,22.78,24.36,9.82-1.78,15.55-15.57,12.79-30.81-2.76-15.23-12.96-26.14-22.78-24.36-9.82,1.78-15.55,15.57-12.79,30.81Z"/>
        </g>
        <g>
          <path class="cls-2" d="M1176.83,728.54c-12.54,9.31-7.1,23.34-10.99,42.33-5.71,27.86,7.25,39.43,19.64,35.01,12.4-4.42,13.01-22.33,24.43-30.02.04-.02.07-.05.11-.07.03-.03.07-.05.1-.08,11.11-8.13,28.16-2.63,36.53-12.79,8.36-10.16,1.88-26.28-26.27-30.36-19.18-2.78-30.54-12.67-43.55-4.03Z"/>
          <path class="cls-2" d="M1139.35,740.72c13.89,4.75,22.67,15.87,19.6,24.82-3.06,8.95-16.81,12.36-30.7,7.61s-22.67-15.87-19.6-24.82c3.06-8.95,16.81-12.36,30.7-7.61Z"/>
          <path class="cls-2" d="M1201.02,697.41c-.24,14.68,7.23,26.71,16.69,26.86,9.46.16,17.33-11.62,17.58-26.29.24-14.68-7.23-26.71-16.69-26.86-9.46-.16-17.33,11.62-17.58,26.29Z"/>
          <path class="cls-2" d="M1149.71,696.95c10.98,10.91,14.18,25.5,7.14,32.58-7.04,7.08-21.64,3.97-32.62-6.94-10.98-10.91-14.18-25.5-7.14-32.58,7.04-7.08,21.64-3.97,32.62,6.94Z"/>
          <path class="cls-2" d="M1156.33,692.3c6.54,14.03,19.17,21.99,28.22,17.78,9.05-4.22,11.08-19.01,4.54-33.04-6.54-14.03-19.17-21.99-28.22-17.78-9.05,4.22-11.08,19.01-4.54,33.04Z"/>
        </g>
        <g>
          <path class="cls-2" d="M1398.55,1009.76c-15.13-3.89-22.61,9.18-39.82,18.1-25.25,13.09-26.08,30.45-14.85,37.3,11.24,6.85,25.54-3.94,38.7.09.04.01.08.03.12.04.04.01.08.02.12.03,13.31,3.52,19.77,20.23,32.93,20.34,13.16.11,21.6-15.08,7.06-39.52-9.91-16.66-9.37-31.7-24.27-36.38Z"/>
          <path class="cls-2" d="M1365.49,988.29c5.05,13.79,1.93,27.6-6.95,30.85-8.89,3.25-20.18-5.28-25.23-19.07-5.05-13.79-1.93-27.6,6.95-30.85,8.89-3.25,20.18,5.28,25.23,19.07Z"/>
          <path class="cls-2" d="M1437.96,1008.96c-11.56,9.05-16.2,22.43-10.37,29.88,5.83,7.45,19.93,6.16,31.5-2.89,11.56-9.05,16.2-22.43,10.37-29.88-5.83-7.45-19.93-6.16-31.5,2.89Z"/>
          <path class="cls-2" d="M1406.03,968.79c-1.57,15.4-10.89,27.07-20.82,26.06-9.93-1.01-16.71-14.32-15.14-29.72,1.57-15.4,10.89-27.07,20.82-26.06,9.93,1.01,16.71,14.32,15.14,29.72Z"/>
          <ellipse class="cls-2" cx="1430.05" cy="978.94" rx="28.03" ry="18.07" transform="translate(-76.99 1834.63) rotate(-63.98)"/>
        </g>
        <g>
          <path class="cls-2" d="M375.22,428.77c-8.27,13.25,1.93,24.32,5.24,43.42,4.86,28.02,21.15,34.06,31.08,25.41,9.92-8.64,3.95-25.54,11.77-36.87.02-.04.05-.07.07-.11.02-.04.05-.07.07-.11,7.37-11.63,25.25-12.74,29.33-25.25,4.07-12.51-7.86-25.15-35.55-18.66-18.87,4.42-33.05-.63-42.01,12.16Z"/>
          <path class="cls-2" d="M344.78,453.81c14.67-.65,26.9,6.48,27.32,15.94.42,9.46-11.13,17.65-25.8,18.3-14.67.65-26.9-6.49-27.32-15.94-.42-9.46,11.13-17.65,25.8-18.3Z"/>
          <path class="cls-2" d="M386.36,390.96c5.14,13.75,16.49,22.22,25.36,18.91,8.87-3.31,11.89-17.15,6.75-30.9-5.14-13.75-16.49-22.22-25.36-18.91-8.87,3.31-11.89,17.15-6.75,30.9Z"/>
          <path class="cls-2" d="M338.42,409.28c14.21,6.15,22.52,18.56,18.56,27.72-3.96,9.16-18.69,11.61-32.9,5.46-14.21-6.15-22.52-18.56-18.56-27.72,3.96-9.16,18.69-11.6,32.9-5.46Z"/>
          <path class="cls-2" d="M342.89,402.53c11.22,10.67,25.89,13.47,32.77,6.24,6.88-7.23,3.37-21.74-7.85-32.42-11.22-10.67-25.89-13.47-32.77-6.24s-3.37,21.74,7.85,32.42Z"/>
        </g>
        <g>
          <path class="cls-2" d="M1395.03,437.44c-12.82-8.93-24.39.7-43.63,3.05-28.23,3.44-35.08,19.41-26.95,29.76,8.13,10.35,25.31,5.23,36.23,13.61.03.03.07.05.1.08.03.02.07.05.1.07,11.24,7.95,11.45,25.86,23.74,30.56,12.29,4.7,25.51-6.58,20.43-34.56-3.46-19.07,2.3-32.98-10.03-42.57Z"/>
          <path class="cls-2" d="M1371.56,405.78c-.09,14.68-7.83,26.54-17.3,26.48-9.46-.06-17.07-12-16.98-26.69.09-14.68,7.83-26.54,17.3-26.48,9.46.06,17.07,12,16.98,26.69Z"/>
          <path class="cls-2" d="M1432.23,450.47c-13.99,4.44-23.02,15.35-20.16,24.37,2.86,9.02,16.52,12.74,30.52,8.3,13.99-4.44,23.02-15.35,20.16-24.37-2.86-9.02-16.53-12.74-30.52-8.3Z"/>
          <path class="cls-2" d="M1416.35,401.67c-6.85,13.88-19.67,21.55-28.62,17.14-8.95-4.42-10.65-19.26-3.79-33.14s19.67-21.55,28.62-17.14c8.95,4.42,10.65,19.26,3.79,33.14Z"/>
          <path class="cls-2" d="M1422.87,406.47c-11.23,10.66-14.75,25.17-7.88,32.41,6.87,7.24,21.55,4.46,32.77-6.2,11.23-10.66,14.75-25.17,7.88-32.41-6.87-7.24-21.55-4.46-32.77,6.2Z"/>
        </g>
        <g>
          <path class="cls-2" d="M1822.79,1149.46c-14.05-6.83-23.98,4.48-42.63,9.8-27.35,7.8-31.63,24.63-21.99,33.59,9.64,8.96,25.81,1.23,37.91,7.81.04.02.08.04.11.06.04.02.08.04.11.06,12.34,6.1,15.34,23.77,28.21,26.49,12.87,2.73,24.18-10.47,14.8-37.32-6.39-18.3-2.86-32.94-16.53-40.49Z"/>
          <path class="cls-2" d="M1794.67,1121.84c2.2,14.52-3.61,27.43-12.97,28.85-9.36,1.42-18.72-9.2-20.92-23.72-2.2-14.52,3.61-27.43,12.97-28.85s18.73,9.2,20.92,23.72Z"/>
          <path class="cls-2" d="M1861.56,1156.54c-13.13,6.56-20.35,18.74-16.12,27.21,4.23,8.47,18.31,10.01,31.44,3.45,13.13-6.56,20.35-18.74,16.12-27.21-4.23-8.47-18.31-10.01-31.44-3.45Z"/>
          <path class="cls-2" d="M1838.28,1110.81c-4.61,14.78-16.07,24.35-25.6,21.38-9.53-2.97-13.51-17.36-8.9-32.14,4.61-14.78,16.07-24.35,25.6-21.38,9.53,2.97,13.51,17.36,8.9,32.14Z"/>
          <path class="cls-2" d="M1845.46,1114.54c-9.43,12.28-10.66,27.16-2.74,33.24,7.92,6.08,21.98,1.05,31.41-11.23,9.43-12.28,10.66-27.16,2.74-33.24-7.92-6.08-21.98-1.05-31.41,11.23Z"/>
        </g>
        <g>
          <path class="cls-2" d="M541.46,136.26c-11.38-10.7-24.23-2.87-43.61-3.35-28.43-.71-37.54,14.09-31,25.51,6.54,11.42,24.27,8.87,33.86,18.75.03.03.06.06.09.09.03.03.06.06.09.09,9.96,9.5,7.56,27.26,19.03,33.7,11.48,6.44,26.2-2.79,25.25-31.21-.65-19.37,7.08-32.29-3.71-43.58Z"/>
          <ellipse class="cls-2" cx="505.92" cy="98.91" rx="26.58" ry="17.14" transform="translate(331.35 583.95) rotate(-81.27)"/>
          <path class="cls-2" d="M576.37,154.58c-14.49,2.35-25.01,11.83-23.5,21.17,1.51,9.34,14.49,15.01,28.98,12.66,14.49-2.35,25.01-11.83,23.5-21.17-1.51-9.34-14.49-15.01-28.98-12.66Z"/>
          <path class="cls-2" d="M567.77,103.99c-8.81,12.73-22.6,18.46-30.81,12.78-8.21-5.68-7.73-20.6,1.08-33.34,8.81-12.73,22.6-18.46,30.81-12.78,8.21,5.68,7.73,20.6-1.08,33.34Z"/>
          <path class="cls-2" d="M573.52,109.68c-12.66,8.91-18.27,22.75-12.52,30.91,5.74,8.16,20.67,7.55,33.33-1.36,12.66-8.91,18.27-22.75,12.52-30.91-5.74-8.16-20.67-7.55-33.33,1.36Z"/>
        </g>
        <g>
          <path class="cls-2" d="M138.87,1068.18c-13.73,7.44-10.33,22.1-16.88,40.35-9.6,26.77,1.58,40.06,14.48,37.44,12.9-2.62,16.04-20.26,28.44-26.25.04-.02.08-.04.12-.06.04-.02.08-.04.11-.06,12.15-6.47,28.25,1.39,37.97-7.48,9.72-8.87,5.58-25.75-21.7-33.78-18.6-5.47-28.43-16.87-42.54-10.16Z"/>
          <path class="cls-2" d="M100.03,1074.93c13.08,6.67,20.19,18.92,15.89,27.35-4.3,8.43-18.39,9.85-31.47,3.18-13.08-6.67-20.19-18.92-15.89-27.35,4.3-8.43,18.39-9.85,31.47-3.18Z"/>
          <path class="cls-2" d="M167.22,1040.8c-2.32,14.5,3.37,27.46,12.72,28.96,9.35,1.5,18.8-9.04,21.13-23.54,2.32-14.5-3.37-27.46-12.72-28.96-9.35-1.5-18.8,9.04-21.12,23.54Z"/>
          <path class="cls-2" d="M116.49,1033.07c9.32,12.36,10.42,27.25,2.45,33.26-7.97,6.01-21.99.86-31.31-11.5-9.32-12.36-10.42-27.25-2.45-33.26,7.97-6.01,21.99-.86,31.31,11.5Z"/>
          <path class="cls-2" d="M123.71,1029.4c4.48,14.82,15.86,24.49,25.42,21.6,9.55-2.89,13.66-17.25,9.18-32.07-4.48-14.82-15.86-24.49-25.42-21.6-9.55,2.89-13.66,17.25-9.18,32.07Z"/>
        </g>
        <g>
          <path class="cls-2" d="M1467.38,1319.74c-15.49-1.99-21.31,11.89-37.28,22.87-23.44,16.1-22.14,33.43-10.14,38.84,11.99,5.42,24.86-7.06,38.42-4.67.04,0,.08.02.13.02.04,0,.08.01.13.02,13.64,1.85,22.11,17.64,35.18,16.13,13.07-1.52,19.58-17.62,2.14-40.09-11.89-15.31-13.21-30.31-28.57-33.12Z"/>
          <path class="cls-2" d="M1431.93,1302.51c6.71,13.06,5.32,27.15-3.1,31.48-8.42,4.32-20.68-2.76-27.39-15.82-6.71-13.06-5.32-27.15,3.1-31.48,8.42-4.32,20.68,2.76,27.39,15.82Z"/>
          <path class="cls-2" d="M1506.39,1314.1c-10.36,10.4-13.32,24.25-6.61,30.93,6.71,6.68,20.54,3.66,30.9-6.75,10.36-10.4,13.32-24.25,6.61-30.93-6.71-6.68-20.54-3.66-30.9,6.75Z"/>
          <path class="cls-2" d="M1469.76,1278.17c.34,15.48-7.48,28.2-17.46,28.42s-18.34-12.15-18.68-27.63c-.34-15.48,7.48-28.2,17.46-28.42s18.34,12.15,18.68,27.63Z"/>
          <path class="cls-2" d="M1477.75,1279.41c-5.03,14.64-1.45,29.14,7.99,32.38,9.44,3.24,21.17-6,26.19-20.65,5.03-14.64,1.45-29.14-7.99-32.38-9.44-3.24-21.17,6-26.19,20.65Z"/>
        </g>
        <g>
          <path class="cls-2" d="M2490.94,392.46c-9.5-12.4-23.45-6.74-42.5-10.34-27.94-5.29-39.32,7.85-34.71,20.18,4.61,12.33,22.53,12.67,30.39,23.97.02.03.05.07.07.11.03.03.05.07.08.1,8.3,10.98,3.06,28.12,13.35,36.33,10.29,8.21,26.3,1.47,29.95-26.73,2.49-19.23,12.2-30.73,3.36-43.61Z"/>
          <path class="cls-2" d="M2478.19,355.16c-4.54,13.96-15.52,22.91-24.52,19.98-9-2.93-12.62-16.62-8.08-30.58,4.54-13.96,15.52-22.91,24.52-19.98,9,2.93,12.62,16.62,8.08,30.58Z"/>
          <path class="cls-2" d="M2522.44,416.16c-14.68-.02-26.59,7.64-26.6,17.1-.01,9.46,11.88,17.15,26.56,17.17,14.68.02,26.59-7.64,26.6-17.1.01-9.46-11.88-17.15-26.56-17.17Z"/>
          <path class="cls-2" d="M2522.11,364.85c-10.74,11.15-25.28,14.57-32.47,7.64s-4.3-21.58,6.44-32.73c10.74-11.15,25.28-14.57,32.47-7.64,7.19,6.93,4.3,21.58-6.44,32.73Z"/>
          <path class="cls-2" d="M2526.86,371.4c-13.93,6.75-21.7,19.51-17.34,28.49,4.35,8.98,19.18,10.79,33.11,4.03,13.93-6.75,21.7-19.51,17.34-28.49-4.35-8.98-19.18-10.79-33.11-4.03Z"/>
        </g>
        <g>
          <path class="cls-2" d="M958.26,429.26c-14.12-6.68-23.93,4.74-42.52,10.25-27.27,8.08-31.37,24.97-21.63,33.82,9.74,8.85,25.82.96,37.99,7.41.04.02.08.04.11.06.04.02.08.04.12.06,12.41,5.97,15.59,23.6,28.49,26.2,12.9,2.59,24.06-10.72,14.41-37.47-6.58-18.23-3.21-32.9-16.96-40.32Z"/>
          <path class="cls-2" d="M929.85,401.93c2.35,14.49-3.32,27.47-12.66,28.98-9.34,1.52-18.82-9-21.17-23.5-2.35-14.49,3.32-27.47,12.66-28.98,9.34-1.52,18.82,9,21.17,23.5Z"/>
          <path class="cls-2" d="M997.11,435.93c-13.06,6.7-20.15,18.96-15.83,27.38,4.32,8.42,18.41,9.82,31.47,3.12,13.06-6.7,20.15-18.96,15.83-27.38-4.32-8.42-18.41-9.82-31.47-3.12Z"/>
          <path class="cls-2" d="M973.35,390.45c-4.45,14.83-15.81,24.52-25.37,21.65-9.56-2.87-13.7-17.22-9.24-32.05,4.45-14.83,15.81-24.52,25.37-21.65,9.56,2.87,13.7,17.22,9.24,32.05Z"/>
          <path class="cls-2" d="M980.57,394.1c-9.3,12.38-10.37,27.27-2.39,33.27,7.98,6,21.99.82,31.29-11.56,9.3-12.38,10.37-27.27,2.39-33.27-7.98-5.99-21.99-.82-31.29,11.56Z"/>
        </g>
        <path class="cls-2" d="M160.63,68.49c6.39-44.61,52.17-38,39.69,15.6-8,34.37-40.3,63.18-42.66,61.17-7.53-6.44-13.63-10.27-27.97-36.41-10.85-19.78-18.22-41.62-7.52-61.33,5.51-10.16,15.48-15.46,24.17-7.77,10.8,9.56,12.17,27.49,14.3,28.75Z"/>
        <path class="cls-2" d="M2525.37,1467.98c36.18-26.87,63.72,10.29,16.87,39.17-30.04,18.51-73.24,15.86-73.47,12.77-.73-9.88-2.3-16.91,6.16-45.5,6.41-21.63,16.73-42.24,38.26-48.52,11.09-3.24,21.88.11,22.53,11.69.81,14.4-10.95,28-10.35,30.4Z"/>
        <path class="cls-2" d="M1634.47,777.04c36.4-26.58,63.63,10.81,16.55,39.3-30.19,18.27-73.37,15.27-73.57,12.18-.65-9.88-2.16-16.93,6.53-45.45,6.58-21.58,17.07-42.11,38.65-48.21,11.12-3.15,21.88.28,22.43,11.87.7,14.41-11.18,27.91-10.59,30.31Z"/>
        <path class="cls-2" d="M1233.78,119.18c-32.34-31.39-.09-64.54,35.94-22.95,23.1,26.67,27.44,69.74,24.42,70.46-9.63,2.31-16.32,4.99-45.9,1.23-22.38-2.85-44.38-9.72-54.04-29.96-4.98-10.43-3.41-21.61,7.92-24.12,14.09-3.12,29.4,6.31,31.66,5.32Z"/>
        <path class="cls-2" d="M99.16,1355.62c26.58-36.39,63.9-9.08,27.73,32.4-23.19,26.59-65.24,36.88-66.37,33.99-3.63-9.22-7.22-15.47-7.61-45.28-.3-22.56,3.44-45.31,22.14-57.69,9.63-6.38,20.92-6.39,24.98,4.48,5.05,13.51-2.16,29.99-.86,32.1Z"/>
        <path class="cls-2" d="M1087.73,1140.09c22.95-38.79,62.73-15.2,30.72,29.57-20.52,28.71-61.38,43-62.78,40.24-4.5-8.82-8.68-14.7-11.95-44.34-2.47-22.42-.94-45.43,16.47-59.55,8.97-7.28,20.21-8.38,25.3,2.05,6.33,12.96.75,30.06,2.24,32.03Z"/>
        <path class="cls-2" d="M1783.88,463.05c3.01-44.97,49.15-41.83,40.75,12.56-5.39,34.87-35.42,66.04-37.92,64.21-7.99-5.85-14.37-9.21-30.64-34.2-12.31-18.9-21.31-40.13-12.13-60.59,4.73-10.54,14.27-16.58,23.51-9.57,11.49,8.72,14.21,26.49,16.43,27.59Z"/>
        <path class="cls-2" d="M2215.09,1540.31c13.66-42.95,57.72-28.88,36.57,21.93-13.56,32.58-50.17,55.67-52.16,53.29-6.36-7.59-11.75-12.38-21.58-40.53-7.44-21.3-11.1-44.06,2.7-61.73,7.11-9.11,17.82-12.7,25.12-3.68,9.08,11.22,7.47,29.12,9.36,30.71Z"/>
        <path class="cls-2" d="M2506.4,888.22c-3.23-44.95,42.91-48.22,42.1,6.81-.52,35.28-25.96,70.3-28.69,68.83-8.72-4.69-15.5-7.14-35.07-29.64-14.8-17.02-26.64-36.8-20.38-58.33,3.23-11.1,11.84-18.4,21.96-12.72,12.59,7.05,17.73,24.28,20.08,25.06Z"/>
        <path class="cls-2" d="M877.62,115.98c41.72-17.05,59.17,25.77,6.63,42.13-33.69,10.48-74.89-2.8-74.34-5.85,1.74-9.75,1.97-16.95,17.26-42.55,11.57-19.37,26.69-36.77,49.1-37.52,11.55-.38,21.17,5.53,18.93,16.91-2.79,14.16-17.56,24.41-17.56,26.88Z"/>
        <path class="cls-2" d="M2448.2,74.46c-1.4-45.05,44.82-46.44,41.79,8.51-1.95,35.23-28.79,69.19-31.46,67.61-8.53-5.04-15.2-7.77-33.84-31.04-14.1-17.61-25.13-37.85-18-59.11,3.68-10.96,12.58-17.9,22.46-11.82,12.29,7.56,16.73,24.98,19.05,25.85Z"/>
        <path class="cls-2" d="M1139.02,1541.65c-2.02-45.02,44.18-47.05,41.9,7.94-1.47,35.25-27.84,69.58-30.53,68.04-8.6-4.92-15.31-7.56-34.26-30.57-14.34-17.41-25.65-37.5-18.81-58.86,3.53-11.01,12.33-18.07,22.3-12.13,12.39,7.39,17.07,24.75,19.4,25.58Z"/>
        <path class="cls-2" d="M2318.73,625.27c26.38-36.54,63.85-9.44,27.91,32.24-23.04,26.72-65.03,37.25-66.18,34.37-3.68-9.2-7.3-15.43-7.87-45.24-.43-22.56,3.19-45.32,21.81-57.81,9.6-6.44,20.89-6.51,25.01,4.34,5.13,13.49-1.99,30-.68,32.1Z"/>
        <path class="cls-2" d="M413.25,834.24c35.59-27.65,63.93,8.9,17.72,38.79-29.63,19.16-72.88,17.45-73.18,14.37-.95-9.86-2.67-16.86,5.17-45.62,5.93-21.77,15.81-42.6,37.19-49.34,11.02-3.48,21.87-.37,22.78,11.2,1.13,14.38-10.34,28.23-9.68,30.61Z"/>
        <path class="cls-2" d="M173.06,1626.57c34.41-29.11,64.24,6.23,19.32,38.02-28.8,20.38-72.09,20.48-72.51,17.41-1.36-9.81-3.37-16.73,3.27-45.8,5.02-21.99,14.02-43.22,35.1-50.85,10.87-3.93,21.84-1.28,23.23,10.24,1.72,14.32-9.16,28.64-8.4,30.99Z"/>
        <path class="cls-2" d="M705.27,1602.94c13.03-43.14,57.29-29.72,36.89,21.39-13.08,32.77-49.35,56.4-51.38,54.05-6.47-7.5-11.93-12.21-22.17-40.21-7.75-21.19-11.75-43.89,1.79-61.76,6.98-9.21,17.63-12.96,25.06-4.04,9.24,11.08,7.89,29.01,9.81,30.57Z"/>
        <path class="cls-2" d="M104.71,696.02c-23.85-38.24,15.42-62.67,40.4-13.64,16.02,31.44,9.88,74.29,6.78,74.26-9.91-.07-17.04.92-44.85-9.83-21.04-8.14-40.75-20.1-45.27-42.06-2.33-11.32,1.88-21.8,13.48-21.51,14.42.36,27.02,13.19,29.46,12.77Z"/>
        <path class="cls-2" d="M75.09,366.62c-33.97-29.62-3.53-64.45,34.67-24.83,24.49,25.4,31.11,68.18,28.14,69.06-9.5,2.82-16.03,5.85-45.77,3.68-22.5-1.65-44.84-7.34-55.56-27.03-5.53-10.15-4.56-21.4,6.62-24.5,13.9-3.86,29.69,4.74,31.9,3.63Z"/>
        <path class="cls-2" d="M1538.49,1584.34c6.87-44.54,52.57-37.44,39.52,16.02-8.37,34.28-40.98,62.75-43.31,60.71-7.46-6.52-13.52-10.42-27.58-36.71-10.64-19.9-17.77-41.82-6.87-61.41,5.62-10.1,15.64-15.29,24.25-7.51,10.7,9.68,11.87,27.62,13.99,28.9Z"/>
        <path class="cls-2" d="M820.73,1332.99c-22.1-39.28,18.23-61.91,40.98-11.8,14.58,32.13,6.51,74.66,3.42,74.5-9.89-.52-17.07.15-44.36-11.85-20.65-9.08-39.8-21.92-43.32-44.06-1.81-11.41,2.86-21.69,14.44-20.88,14.39,1.01,26.4,14.39,28.85,14.09Z"/>
      </g>
    </g>
  </g>
</svg>