<?xml version="1.0" encoding="UTF-8"?>
<svg xmlns="http://www.w3.org/2000/svg" version="1.1" viewBox="0 0 1024 768">
  <defs>
    <style>
      .cls-1 {
        fill: #fff5e4;
      }

      .cls-2 {
        fill: #fff;
      }

      .cls-3 {
        fill: #ff9494;
        stroke: #000;
        stroke-miterlimit: 10;
        stroke-width: 2px;
      }

      .cls-4 {
        fill: #ffd1d1;
      }

      .cls-5 {
        fill: #ffe3e1;
      }
    </style>
  </defs>
  <!-- Generator: Adobe Illustrator 28.7.5, SVG Export Plug-In . SVG Version: 1.2.0 Build 176)  -->
  <g>
    <g id="Layer_1">
      <circle class="cls-3" cx="512.5" cy="384" r="150"/>
      <path class="cls-5" d="M512.5,513c-71.13,0-129-57.87-129-129s57.87-129,129-129,129,57.87,129,129-57.87,129-129,129Z"/>
      <g>
        <g>
          <path class="cls-1" d="M542.38,486.5c-1.55,0-3.12-.1-4.66-.3-9-1.17-18.09-1.77-27.03-1.77-7.83,0-15.72.46-23.43,1.36-1.36.16-2.74.24-4.1.24-14.09,0-27.53-8.48-34.22-21.6-6.52-12.78-5.21-27.08,3.6-39.22l.36-.49-.55-.26c-3.05-1.43-5.92-3.28-8.54-5.5-5.99-5.1-10.19-11.81-11.83-18.9-1.96-8.47-.1-16.83,5.1-22.94,4.81-5.66,11.85-8.77,19.81-8.77,2.32,0,4.69.27,7.05.81l.59.13.02-.6c.03-.84.09-1.59.17-2.3,1-8.64,5.55-15.89,12.5-19.9,3.7-2.13,7.96-3.26,12.32-3.26,8.14,0,16.37,3.86,22.58,10.58l.37.4.37-.4c6.21-6.72,14.44-10.58,22.58-10.58,4.36,0,8.62,1.13,12.32,3.26,6.95,4.01,11.5,11.26,12.5,19.9.08.7.14,1.45.17,2.3l.03.6.58-.13c2.36-.54,4.73-.81,7.05-.81,7.96,0,15,3.12,19.81,8.77,5.2,6.11,7.06,14.47,5.1,22.94-1.64,7.09-5.84,13.8-11.83,18.9-2.72,2.32-5.71,4.22-8.89,5.67l-.56.25.36.5c9.11,12.52,10.57,27.09,4,40-6.54,12.84-19.77,21.14-33.72,21.14h0Z"/>
          <path d="M535.45,343.72c4.28,0,8.45,1.1,12.07,3.19,6.81,3.93,11.28,11.05,12.25,19.52.08.69.14,1.43.17,2.26l.05,1.2,1.17-.27c2.33-.53,4.66-.8,6.94-.8,7.81,0,14.71,3.05,19.43,8.6,5.1,5.99,6.92,14.19,4.99,22.51-1.62,6.99-5.76,13.6-11.67,18.63-2.69,2.29-5.64,4.17-8.78,5.59l-1.12.51.72.99c9,12.36,10.44,26.75,3.96,39.47-6.45,12.68-19.51,20.87-33.28,20.87-1.53,0-3.07-.1-4.59-.3-9.02-1.17-18.13-1.77-27.09-1.77-7.85,0-15.76.46-23.49,1.36-1.34.16-2.7.24-4.04.24-13.91,0-27.16-8.37-33.78-21.33-6.43-12.61-5.13-26.71,3.56-38.7l.71-.98-1.1-.51c-3.01-1.41-5.85-3.23-8.43-5.43-5.91-5.03-10.05-11.64-11.67-18.63-1.92-8.31-.1-16.52,4.99-22.51,4.72-5.54,11.62-8.6,19.43-8.6,2.28,0,4.62.27,6.94.8l1.17.27.05-1.2c.03-.83.09-1.57.17-2.26.98-8.48,5.45-15.59,12.25-19.52,3.62-2.09,7.79-3.19,12.07-3.19,8,0,16.1,3.8,22.22,10.42l.73.8.73-.8c6.11-6.62,14.21-10.42,22.22-10.42M535.45,342.72c-8.43,0-16.71,3.98-22.95,10.74-6.24-6.76-14.52-10.74-22.95-10.74-4.45,0-8.8,1.15-12.57,3.33-7.09,4.09-11.73,11.48-12.75,20.28-.09.77-.14,1.55-.18,2.33-2.37-.54-4.77-.82-7.16-.82-8.11,0-15.28,3.18-20.19,8.95-5.3,6.23-7.2,14.75-5.21,23.38,1.66,7.19,5.92,14,11.99,19.17,2.69,2.29,5.6,4.15,8.65,5.58-20.47,28.23,2.79,61.62,31.02,61.62,1.38,0,2.76-.08,4.16-.24,7.77-.91,15.57-1.35,23.37-1.35,9,0,18,.59,26.96,1.76,1.59.21,3.16.31,4.72.31,28.39,0,50.98-33.27,30.12-61.93,3.18-1.44,6.22-3.37,9.01-5.74,6.07-5.17,10.33-11.97,11.99-19.17,1.99-8.63.1-17.15-5.2-23.38-4.91-5.77-12.08-8.95-20.19-8.95-2.4,0-4.8.28-7.16.82-.03-.78-.09-1.56-.18-2.33-1.02-8.79-5.66-16.18-12.75-20.28-3.77-2.18-8.12-3.33-12.57-3.33h0Z"/>
        </g>
        <g>
          <path class="cls-4" d="M487.15,406.95c13.78-13.85,36.17-13.91,50.02-.14l15.6,15.52c26.69,26.54-4.04,62.44-31.96,47.14-5.28-2.9-11.72-2.85-17.04-.02-27.14,14.43-57.83-21.08-32.15-46.9l15.52-15.6Z"/>
          <g>
            <ellipse class="cls-4" cx="493.35" cy="373.9" rx="13.64" ry="18.38" transform="translate(-120.85 296.77) rotate(-30)"/>
            <ellipse class="cls-4" cx="531.65" cy="373.9" rx="18.38" ry="13.64" transform="translate(-57.98 647.37) rotate(-60)"/>
          </g>
          <g>
            <ellipse class="cls-4" cx="563.36" cy="397.5" rx="18.38" ry="13.64" transform="translate(-123.29 459.84) rotate(-40.39)"/>
            <ellipse class="cls-4" cx="461.64" cy="397.5" rx="13.64" ry="18.38" transform="translate(-140.26 491.49) rotate(-49.61)"/>
          </g>
          <path class="cls-2" d="M513.62,452.96c-.61.61-1.61.61-2.22,0l-13.97-13.97c-11.38-11.38,2.5-25.94,14.05-16.04.6.51,1.47.51,2.06,0,11.51-9.85,25.4,4.7,14.05,16.04l-13.97,13.97Z"/>
        </g>
      </g>
      <g>
        <path d="M439.07,340.99c-.5.12-1.03-.09-1.58-.64-1.3-1.14-2.43-2.32-3.38-3.57-.5-.6-.75-.9-1.25-1.5-.24-.34-.5-.53-.75-.55-.25-.03-.49-.11-.61-.23-.11-.12-.15-.31-.12-.48.03-.16.05-.3.06-.4.01-.1,0-.19-.05-.25-.16-.22-.34-.4-.49-.56-.33-.34-.65-.78-.96-1.21-.54-.8-.81-1.2-1.35-1.99-.27-.43-.41-.64-.68-1.07-2.39-3.31-4.56-6.81-6.54-10.32-1.36-2.41-2.48-4.45-3.27-6.04-.51-1.03.23-2.28,2.3-3.67.65-.43.97-.65,1.62-1.08,3.3-2.16,6.89-3.74,10.38-4.36,2.66-.47,5.11-.15,7.05.7,1.94.85,3.32,2.15,4.17,3.86.39.79.67,1.63.83,2.53.56,3.39.34,6.92-.53,10.59-.87,3.68-2.7,6.89-5.52,9.84-.25.21-.38.38-.38.52,0,.13.08.31.22.54.33.41.5.62.83,1.03,1.01,1.39,2.13,2.74,3.33,4.05.06.1.09.14.15.24.33.51.28,1.08-.15,1.7-.43.62-.91,1.11-1.45,1.48-.58.39-1.21.66-1.9.82ZM436.97,326.37c1.46-4.26,1.92-8.34,1.15-12.29-.14-1.19-.48-2.27-1.02-3.24-.84-1.5-2.32-2.6-4.5-3.24-2.18-.64-4.61-.36-7.23.9-.33.21-.39.47-.18.79.79,1.54,1.18,2.3,1.97,3.84,1.64,3.26,3.34,6.34,5.06,9.28,1.53,2.36,2.3,3.54,3.84,5.91.41-.68.71-1.32.9-1.94Z"/>
        <path d="M473.93,324.16c-1.16-2.19-2.19-4.75-3.25-7.14-.12-.24-.25-.37-.37-.39-.13-.02-.3,0-.51.08-2.76.93-5.5,2.06-8.16,3.3-.25.1-.39.2-.43.3-.03.1.72,2.52,2.44,6.92.22.56.08,1.08-.46,1.56-.54.47-1.09.84-1.67,1.09-1.74.77-2.81.75-3.21-.12-.58-1.25-.87-1.87-1.45-3.11.05-.02.07-.03.12-.06-1.05-2.25-1.62-3.4-1.71-3.44-.09-.04-.26,0-.51.11-.15.07-.22.1-.37.17-.62.29-1.23.46-1.84.51-.61.05-.99-.06-1.12-.34-.17-.34,0-.71.45-1.12.63-.57,1.36-1.11,2.2-1.5.33-.16.45-.35.33-.6-1.2-3.48-2.1-7.11-2.84-10.6-.69-3.27-1.36-6.89-1.67-10.68-.31-3.79.03-7.63,1.13-11.5.76-2.26,2.54-3.92,5.3-4.87,2.81-.97,5.17-.93,6.57.1,1.63,1.2,2.8,3.09,3.59,4.79,1.81,3.89,3.71,8.13,5.02,12.44.92,2.72,1.38,4.08,2.28,6.8,1.24,3.74,2.37,6.78,3.29,9.07.62,1.55,1.52,3.84,2.7,6.8.13.48-.09.89-.64,1.24-.55.35-1.17.62-1.85.82-1.68.49-2.87.26-3.36-.66ZM464.77,315.97c2.73-1.09,4.19-1.58,4.32-1.63.13-.04.23-.08.29-.12.06-.04.06-.15,0-.33-1.28-3.29-1.92-4.94-3.23-8.22-1.79-4.8-3.82-9.47-5.97-13.95-.63-1.3-1.41-2.55-2.38-3.66-.58,2.06-.83,4.08-.8,6.06-.1,8,1.09,15.76,3.22,23.31.07.18.14.26.21.25.07,0,.28-.08.62-.22,1.48-.62,2.22-.91,3.72-1.49Z"/>
        <path d="M499.36,322.85c-1.46-1.04-3.05-3.86-4.91-8.46-1.32-3.06-2-4.58-3.42-7.6-.21.46-.33.88-.36,1.27-.26,1.34-.39,2.01-.62,3.35-.93,5.34-1.66,8.44-2.47,9.3-.46.48-1.32.85-2.59,1.13-1.1.24-1.98.28-2.63.08-.65-.2-1.2-.73-1.64-1.6-2.28-4.47-4.49-10.39-6.48-17.84-.3-1.13-.45-1.69-.75-2.82-.5-1.88-.91-3.83-1.04-5.71-.07-.95.97-1.75,3.06-2.24,2.34-.56,3.62-.28,3.85.77.13.75.19,1.12.32,1.86.24,1.82.6,3.86,1.09,6.09,1.29,5.83,2.32,9.56,2.98,11.13.09-.02.14,0,.14.03.17-1.14.26-1.71.45-2.84.28-2.08.73-4.39,1.38-6.92.23-.86.61-1.54,1.15-2.04.53-.5,1.38-.85,2.54-1.03.62-.05.92-.07,1.54-.12,2.04-.22,3.35.2,3.91,1.21.96,2.31,1.96,4.63,2.99,6.98,1.03,2.35,1.98,4.77,2.86,7.26.16-.63.26-1.27.29-1.92.09-2.05.14-3.08.25-5.13.12-3.07.31-6.13.57-9.18.37-5.88.59-8.82,1.11-14.71-.06-.99.2-1.62.78-1.88.58-.26,1.55-.42,2.9-.47.92-.03,1.79.07,2.6.3.82.23,1.22.66,1.23,1.27-1.13,8.57-1.76,14.47-2.14,17.68-.38,3.68-.56,5.52-.88,9.2-.35,3.91-.9,7.75-1.61,11.54-.18,1.27-.77,2.06-1.75,2.4-.67.23-1.33.38-1.97.44-1,.08-1.91-.17-2.75-.77Z"/>
        <path d="M512.97,317.86c-.46-.19-.75-.67-.89-1.43-.39-1.68-.62-3.3-.68-4.86-.06-.78-.09-1.17-.15-1.95,0-.42-.1-.72-.28-.88-.18-.17-.32-.37-.34-.54-.02-.17.05-.34.16-.46.11-.12.2-.21.27-.29.07-.08.1-.15.1-.23,0-.27-.04-.52-.08-.74-.07-.47-.08-1.01-.08-1.55.02-.96.03-1.44.04-2.41.02-.5.04-.76.06-1.26-.04-4.08.18-8.19.58-12.2.27-2.75.51-5.07.77-6.82.17-1.14,1.43-1.73,3.82-1.67.75.02,1.12.03,1.87.05,3.79.13,7.5.89,10.62,2.37,2.37,1.13,4.15,2.79,5.23,4.59,1.08,1.8,1.45,3.66,1.17,5.54-.13.87-.38,1.72-.76,2.55-1.46,3.11-3.62,5.87-6.37,8.4-2.75,2.52-6,4.12-9.85,4.91-.32.03-.51.09-.58.21-.07.11-.11.3-.12.57.03.53.05.79.09,1.32.02,1.72.15,3.46.38,5.23,0,.11,0,.17-.01.29-.03.61-.38,1.04-1.06,1.31-.68.26-1.33.39-1.96.38-.67-.01-1.32-.16-1.94-.42ZM519.41,304.69c3.52-2.66,6.15-5.74,7.76-9.42.55-1.06.89-2.14,1-3.24.17-1.71-.39-3.46-1.76-5.23-1.37-1.77-3.45-2.93-6.2-3.4-.37-.02-.57.17-.58.55-.23,1.71-.35,2.56-.58,4.27-.51,3.61-.89,7.11-1.16,10.5-.1,2.82-.15,4.22-.26,7.04.7-.32,1.29-.67,1.78-1.07Z"/>
        <path d="M550.35,323.93c.3-2.46.91-5.15,1.41-7.71.03-.27,0-.45-.08-.53-.09-.09-.25-.16-.46-.23-2.79-.81-5.66-1.44-8.53-1.94-.26-.06-.43-.06-.52,0-.08.06-.84,2.48-1.94,7.08-.14.58-.55.93-1.25,1.02-.7.09-1.36.07-1.97-.05-1.84-.36-2.68-.98-2.52-1.92.24-1.35.35-2.03.59-3.39.05,0,.08.01.13.02.43-2.44.62-3.71.56-3.8-.05-.09-.21-.15-.47-.2-.16-.03-.24-.04-.39-.07-.66-.11-1.25-.32-1.76-.63-.52-.31-.76-.61-.71-.92.06-.38.4-.58.99-.66.82-.11,1.72-.14,2.61.02.36.06.56-.04.61-.3,1-3.55,2.32-7.04,3.69-10.33,1.29-3.09,2.8-6.43,4.69-9.72,1.89-3.29,4.35-6.25,7.44-8.81,1.9-1.43,4.29-1.77,7.09-.98,2.85.81,4.77,2.18,5.33,3.83.65,1.92.54,4.13.22,5.98-.73,4.23-1.59,8.8-2.97,13.09-.79,2.76-1.2,4.13-2,6.88-1.12,3.78-1.92,6.92-2.48,9.33-.37,1.63-.94,4.02-1.66,7.13-.17.47-.58.68-1.24.65-.66-.03-1.32-.16-1.99-.39-1.66-.56-2.51-1.42-2.39-2.46ZM547.52,311.99c2.85.66,4.32,1.08,4.46,1.12s.23.06.3.06c.07,0,.13-.09.19-.27.83-3.43,1.24-5.15,2.05-8.59,1.27-4.96,2.27-9.96,3.06-14.86.23-1.43.3-2.89.14-4.37-1.64,1.36-3,2.88-4.1,4.52-4.64,6.52-8.06,13.58-10.62,20.99-.04.19-.03.3.03.33.06.03.27.09.63.17,1.55.33,2.32.51,3.87.89Z"/>
        <path d="M556.68,326.2c0-1.18.21-2.38.53-3.52.32-1.14.68-2.27,1.08-3.38,1.55-4.29,2.32-6.43,3.87-10.72.08.03.12.04.21.07.77-1.94,1.15-2.91,1.92-4.85,2.27-6.24,5.02-12.09,8.44-17.45.27-.39.59-.71.95-.95.37-.25.94-.33,1.7-.23.76.09,1.49.28,2.19.56.75.3,1.44.71,2.06,1.23.63.51.84,1,.64,1.46-.91,1.6-1.37,2.4-2.27,4.01-4.45,7.73-8.25,15.73-11.63,23.87-.74,1.7-1.11,2.55-1.84,4.26-.35.85-.67,1.72-.97,2.6-.3.89-.67,1.86-1.11,2.92-.18.42-.2.66-.09.71,2.52.68,4.95,1.56,7.21,2.64.7.34,1.34.82,1.92,1.41.43.31.54.66.33,1.07-.09.17-.21.27-.37.29-.16.03-.29.04-.38.03-.09,0-.17,0-.22.01-.96-.11-1.86-.36-2.7-.77-.11-.06-.17-.08-.29-.14-.09,0-.2-.03-.31-.09-1.65-.71-3.34-1.29-5.08-1.74-.71-.18-1.42-.38-2.15-.59-.51-.16-.76-.24-1.27-.39-1.56-.62-2.38-1.4-2.37-2.32Z"/>
        <path d="M574.07,333.62c-.58-1.06-.79-2.3-.69-3.49.11-1.19.41-2.3.94-3.32.88-1.69,2.29-3.12,4.26-4.23,2.07-1.17,4.58-1.58,7.49-1.11.62.19,1.11.15,1.45-.13.14-.23.17-.57.09-1.02-.13-3.46-.14-6.68-.02-9.6.1-2.51.72-4.96,1.98-7.28.82-1.51,2.08-2.78,3.8-3.66,2.44-1.26,5.87-.68,9.94,1.88,1.08.68,2.12,1.48,3.1,2.41,1.86,1.82,2.85,3.68,3,5.5.15,1.82-.28,3.39-1.24,4.71-.58.8-1.31,1.52-2.17,2.14-.86.63-1.82.98-2.87,1.08s-2.17-.26-3.37-1.07c-.62-.42-1.12-.9-1.49-1.44-.38-.54-.44-1.02-.17-1.44.64-.63.95-.94,1.59-1.56.67-.52,1.39-1.27,2.04-2.22.93-1.35,1.15-3.08.64-5.04-.08-.41-.24-.69-.48-.84-.19-.12-.53-.13-1-.02-1.24.27-2.17.68-2.8,1.24-.63.55-1.25,1.28-1.84,2.16-.1.1-.15.15-.25.25-1.1,1.83-1.73,3.95-1.93,6.34-.2,2.39-.33,4.85-.4,7.37-.07,2.53-.32,4.97-.73,7.33-.41,2.36-1.28,4.43-2.55,6.25-.85,1.22-1.99,2.16-3.39,2.84-1.4.68-2.91.98-4.54.92-1.63-.06-3.25-.59-4.91-1.58-1.51-.91-2.76-2.05-3.5-3.39ZM579.69,334.61c2.26-.33,4.04-1.43,5.28-3.4.84-1.32,1.52-3.22,1.99-5.71-1.61.04-3.03.52-4.26,1.41-1.23.89-2.16,1.91-2.82,3.03-.69,1.19-.99,2.56-.93,4.1,0,.26.07.44.22.53.11.07.28.08.51.04Z"/>
      </g>
    </g>
  </g>
</svg>